<?xml version="1.0" encoding="UTF-8"?>
<svg xmlns="http://www.w3.org/2000/svg" viewBox="0 0 64 64" width="64" height="64">
  <!-- Standard Calculator Icon -->
  <rect x="12" y="4" width="40" height="56" rx="6" fill="#60cdff"/>
  <rect x="16" y="8" width="32" height="14" rx="3" fill="#202020"/>
  <text x="44" y="19" font-family="Arial" font-size="10" fill="#60cdff" text-anchor="end" font-weight="bold">42</text>
  <rect x="16" y="26" width="8" height="6" rx="1.5" fill="#ffffff" opacity="0.9"/>
  <rect x="28" y="26" width="8" height="6" rx="1.5" fill="#ffffff" opacity="0.9"/>
  <rect x="40" y="26" width="8" height="6" rx="1.5" fill="#ffffff" opacity="0.9"/>
  <rect x="16" y="35" width="8" height="6" rx="1.5" fill="#ffffff" opacity="0.9"/>
  <rect x="28" y="35" width="8" height="6" rx="1.5" fill="#ffffff" opacity="0.9"/>
  <rect x="40" y="35" width="8" height="6" rx="1.5" fill="#ffffff" opacity="0.9"/>
  <rect x="16" y="44" width="8" height="6" rx="1.5" fill="#ffffff" opacity="0.9"/>
  <rect x="28" y="44" width="8" height="6" rx="1.5" fill="#ffffff" opacity="0.9"/>
  <rect x="40" y="44" width="8" height="6" rx="1.5" fill="#ffffff" opacity="0.9"/>
  <rect x="16" y="53" width="20" height="6" rx="1.5" fill="#ffffff" opacity="0.9"/>
  <rect x="40" y="53" width="8" height="6" rx="1.5" fill="#ffffff" opacity="0.9"/>
</svg>
